<svg width="36" height="36" viewBox="0 0 36 36" fill="none" xmlns="http://www.w3.org/2000/svg">
<rect width="36" height="36" rx="4" fill="#004638"/>
<path d="M13.3716 23.6284C12.4562 22.713 11.8329 21.5467 11.5803 20.277C11.3278 19.0073 11.4574 17.6912 11.9528 16.4952C12.4482 15.2992 13.2872 14.2769 14.3635 13.5577C15.4399 12.8385 16.7054 12.4546 18 12.4546C19.2946 12.4546 20.5601 12.8385 21.6364 13.5577C22.7128 14.2769 23.5518 15.2992 24.0472 16.4952C24.5426 17.6912 24.6722 19.0073 24.4197 20.277C24.1671 21.5467 23.5437 22.713 22.6284 23.6284L23.6567 24.6567C24.4007 23.9147 24.9907 23.033 25.3928 22.0622C25.795 21.0914 26.0013 20.0508 26 19C26 14.5818 22.4182 11 18 11C13.5818 11 10 14.5818 10 19C10 21.2094 10.8953 23.2094 12.3433 24.6567L13.3716 23.6284V23.6284Z" fill="#159643"/>
<path d="M21.6001 22.6C22.312 21.888 22.7968 20.9809 22.9932 19.9934C23.1896 19.0058 23.0888 17.9823 22.7034 17.052C22.3181 16.1218 21.6656 15.3268 20.8284 14.7674C19.9912 14.208 19.007 13.9095 18.0001 13.9095C16.9932 13.9095 16.009 14.208 15.1718 14.7674C14.3346 15.3268 13.6821 16.1218 13.2968 17.052C12.9114 17.9823 12.8106 19.0058 13.007 19.9934C13.2034 20.9809 13.6882 21.888 14.4001 22.6L15.4292 21.5716C14.9206 21.0631 14.5743 20.4151 14.434 19.7098C14.2937 19.0044 14.3657 18.2732 14.6409 17.6088C14.9161 16.9443 15.3822 16.3764 15.9802 15.9768C16.5782 15.5772 17.2812 15.3639 18.0005 15.3639C18.7197 15.3639 19.4227 15.5772 20.0207 15.9768C20.6187 16.3764 21.0848 16.9443 21.36 17.6088C21.6352 18.2732 21.7073 19.0044 21.5669 19.7098C21.4266 20.4151 21.0803 21.0631 20.5717 21.5716L21.6001 22.6Z" fill="#159643"/>
<path d="M19.5424 20.5425C19.8474 20.2374 20.0552 19.8486 20.1394 19.4254C20.2235 19.0022 20.1803 18.5635 20.0151 18.1649C19.85 17.7662 19.5703 17.4255 19.2116 17.1858C18.8528 16.946 18.431 16.8181 17.9994 16.8181C17.5679 16.8181 17.1461 16.946 16.7873 17.1858C16.4285 17.4255 16.1489 17.7662 15.9837 18.1649C15.8186 18.5635 15.7754 19.0022 15.8595 19.4254C15.9437 19.8486 16.1514 20.2374 16.4565 20.5425L17.4856 19.5142C17.3839 19.4125 17.3146 19.2829 17.2865 19.1418C17.2584 19.0007 17.2728 18.8545 17.3279 18.7216C17.3829 18.5887 17.4761 18.4751 17.5957 18.3952C17.7153 18.3152 17.856 18.2726 17.9998 18.2726C18.1437 18.2726 18.2843 18.3152 18.4039 18.3952C18.5235 18.4751 18.6167 18.5887 18.6717 18.7216C18.7268 18.8545 18.7412 19.0007 18.7131 19.1418C18.685 19.2829 18.6157 19.4125 18.514 19.5142L19.5424 20.5425V20.5425Z" fill="#159643"/>
</svg>
