<svg xmlns="http://www.w3.org/2000/svg" version="1.1" xmlns:xlink="http://www.w3.org/1999/xlink" xmlns:svgjs="http://svgjs.com/svgjs" width="512" height="512" x="0" y="0" viewBox="0 0 512 512" style="enable-background:new 0 0 512 512" xml:space="preserve" class=""><g><path d="M337.318 246.398 276 307.716V156c0-11.046-8.954-20-20-20s-20 8.954-20 20v151.716l-61.318-61.318c-7.81-7.811-20.474-7.811-28.284 0-7.811 7.811-7.811 20.474 0 28.285 20.935 20.932 94.304 94.313 95.585 95.573 7.828 7.701 20.408 7.637 28.159-.113l95.46-95.46c7.81-7.811 7.81-20.474 0-28.285s-20.474-7.811-28.284 0z" fill="#ffffff" data-original="#000000" class="" opacity="1"></path><path d="M256 16C123.362 16 16 123.344 16 256c0 132.638 107.343 240 240 240 132.638 0 240-107.343 240-240 0-132.638-107.344-240-240-240zm0 440c-110.28 0-200-89.72-200-200S145.72 56 256 56s200 89.72 200 200-89.72 200-200 200z" fill="#ffffff" data-original="#000000" class="" opacity="1"></path></g></svg>